<svg xmlns="http://www.w3.org/2000/svg" viewBox="0 0 64 64" width="64" height="64">
  <defs>
    <linearGradient id="g" x1="0" y1="0" x2="1" y2="1">
      <stop offset="0%" stop-color="#F0D78A"/>
      <stop offset="50%" stop-color="#C8A94E"/>
      <stop offset="100%" stop-color="#B8943E"/>
    </linearGradient>
  </defs>
  <circle cx="32" cy="32" r="12" fill="url(#g)"/>
  <line x1="32" y1="14" x2="32" y2="6" stroke="url(#g)" stroke-width="3" stroke-linecap="round" transform="rotate(0 32 32)"/>
  <line x1="32" y1="14" x2="32" y2="6" stroke="url(#g)" stroke-width="3" stroke-linecap="round" transform="rotate(30 32 32)"/>
  <line x1="32" y1="14" x2="32" y2="6" stroke="url(#g)" stroke-width="3" stroke-linecap="round" transform="rotate(60 32 32)"/>
  <line x1="32" y1="14" x2="32" y2="6" stroke="url(#g)" stroke-width="3" stroke-linecap="round" transform="rotate(90 32 32)"/>
  <line x1="32" y1="14" x2="32" y2="6" stroke="url(#g)" stroke-width="3" stroke-linecap="round" transform="rotate(120 32 32)"/>
  <line x1="32" y1="14" x2="32" y2="6" stroke="url(#g)" stroke-width="3" stroke-linecap="round" transform="rotate(150 32 32)"/>
  <line x1="32" y1="14" x2="32" y2="6" stroke="url(#g)" stroke-width="3" stroke-linecap="round" transform="rotate(180 32 32)"/>
  <line x1="32" y1="14" x2="32" y2="6" stroke="url(#g)" stroke-width="3" stroke-linecap="round" transform="rotate(210 32 32)"/>
  <line x1="32" y1="14" x2="32" y2="6" stroke="url(#g)" stroke-width="3" stroke-linecap="round" transform="rotate(240 32 32)"/>
  <line x1="32" y1="14" x2="32" y2="6" stroke="url(#g)" stroke-width="3" stroke-linecap="round" transform="rotate(270 32 32)"/>
  <line x1="32" y1="14" x2="32" y2="6" stroke="url(#g)" stroke-width="3" stroke-linecap="round" transform="rotate(300 32 32)"/>
  <line x1="32" y1="14" x2="32" y2="6" stroke="url(#g)" stroke-width="3" stroke-linecap="round" transform="rotate(330 32 32)"/>
</svg>
